<mxfile host="app.diagrams.net" modified="2023-10-17T16:49:35.536Z" agent="Mozilla/5.0 (Windows NT 10.0; Win64; x64) AppleWebKit/537.36 (KHTML, like Gecko) Chrome/118.0.0.0 Safari/537.36" etag="J4DvzAcRk2LHvLej8BKZ" version="22.0.4" type="github">
  <diagram name="Page-1" id="edf60f1a-56cd-e834-aa8a-f176f3a09ee4">
    <mxGraphModel dx="1050" dy="566" grid="1" gridSize="10" guides="1" tooltips="1" connect="1" arrows="1" fold="1" page="1" pageScale="1" pageWidth="1100" pageHeight="850" background="none" math="0" shadow="0">
      <root>
        <mxCell id="0" />
        <mxCell id="1" parent="0" />
        <mxCell id="E39JrQ1B-pjjyprhwLWe-5" style="edgeStyle=orthogonalEdgeStyle;rounded=0;orthogonalLoop=1;jettySize=auto;html=1;" edge="1" parent="1" source="E39JrQ1B-pjjyprhwLWe-3" target="E39JrQ1B-pjjyprhwLWe-4">
          <mxGeometry relative="1" as="geometry" />
        </mxCell>
        <mxCell id="E39JrQ1B-pjjyprhwLWe-3" value="Пайдаланушы квестті бастады" style="rounded=1;whiteSpace=wrap;html=1;" vertex="1" parent="1">
          <mxGeometry x="100" y="50" width="120" height="50" as="geometry" />
        </mxCell>
        <mxCell id="E39JrQ1B-pjjyprhwLWe-7" style="edgeStyle=orthogonalEdgeStyle;rounded=0;orthogonalLoop=1;jettySize=auto;html=1;" edge="1" parent="1" source="E39JrQ1B-pjjyprhwLWe-4" target="E39JrQ1B-pjjyprhwLWe-6">
          <mxGeometry relative="1" as="geometry" />
        </mxCell>
        <mxCell id="E39JrQ1B-pjjyprhwLWe-4" value="Пайдаланушы жанрды таңдайды" style="rounded=1;whiteSpace=wrap;html=1;" vertex="1" parent="1">
          <mxGeometry x="100" y="130" width="120" height="60" as="geometry" />
        </mxCell>
        <mxCell id="E39JrQ1B-pjjyprhwLWe-10" style="edgeStyle=orthogonalEdgeStyle;rounded=0;orthogonalLoop=1;jettySize=auto;html=1;" edge="1" parent="1" source="E39JrQ1B-pjjyprhwLWe-6" target="E39JrQ1B-pjjyprhwLWe-9">
          <mxGeometry relative="1" as="geometry" />
        </mxCell>
        <mxCell id="E39JrQ1B-pjjyprhwLWe-6" value="Таңдалған жанрға сәйкес диалог басталады" style="rounded=0;whiteSpace=wrap;html=1;" vertex="1" parent="1">
          <mxGeometry x="100" y="230" width="120" height="60" as="geometry" />
        </mxCell>
        <mxCell id="E39JrQ1B-pjjyprhwLWe-12" style="edgeStyle=orthogonalEdgeStyle;rounded=0;orthogonalLoop=1;jettySize=auto;html=1;" edge="1" parent="1" target="E39JrQ1B-pjjyprhwLWe-11">
          <mxGeometry relative="1" as="geometry">
            <mxPoint x="405" y="350" as="sourcePoint" />
            <mxPoint x="250" y="475" as="targetPoint" />
            <Array as="points">
              <mxPoint x="405" y="420" />
            </Array>
          </mxGeometry>
        </mxCell>
        <mxCell id="E39JrQ1B-pjjyprhwLWe-9" value="Пайдаланушы сұрақтарға жауап береді және сюжеттің дамуына әсер ететін тапсырмалар шешеді" style="rounded=0;whiteSpace=wrap;html=1;" vertex="1" parent="1">
          <mxGeometry x="275" y="290" width="150" height="75" as="geometry" />
        </mxCell>
        <mxCell id="E39JrQ1B-pjjyprhwLWe-14" style="edgeStyle=orthogonalEdgeStyle;rounded=0;orthogonalLoop=1;jettySize=auto;html=1;" edge="1" parent="1" source="E39JrQ1B-pjjyprhwLWe-11" target="E39JrQ1B-pjjyprhwLWe-13">
          <mxGeometry relative="1" as="geometry">
            <Array as="points">
              <mxPoint x="340" y="530" />
            </Array>
          </mxGeometry>
        </mxCell>
        <mxCell id="E39JrQ1B-pjjyprhwLWe-11" value="Кейіпкер пайдаланушының жауаптарына жауап береді және квесттегі келесі қадамдарды ұсынады" style="rounded=0;whiteSpace=wrap;html=1;" vertex="1" parent="1">
          <mxGeometry x="65" y="375" width="190" height="100" as="geometry" />
        </mxCell>
        <mxCell id="E39JrQ1B-pjjyprhwLWe-13" value="Диалогтың жалғасы, қолданушы мен кейіпкер қосымша оқиғаларды талқылайды" style="rounded=0;whiteSpace=wrap;html=1;" vertex="1" parent="1">
          <mxGeometry x="255" y="520" width="170" height="90" as="geometry" />
        </mxCell>
        <mxCell id="E39JrQ1B-pjjyprhwLWe-20" style="edgeStyle=orthogonalEdgeStyle;rounded=0;orthogonalLoop=1;jettySize=auto;html=1;" edge="1" parent="1" source="E39JrQ1B-pjjyprhwLWe-15" target="E39JrQ1B-pjjyprhwLWe-19">
          <mxGeometry relative="1" as="geometry" />
        </mxCell>
        <mxCell id="E39JrQ1B-pjjyprhwLWe-15" value="Пайдаланушы соңғы шешімді немесе әрекетті қабылдайды" style="rounded=0;whiteSpace=wrap;html=1;" vertex="1" parent="1">
          <mxGeometry x="65" y="600" width="170" height="95" as="geometry" />
        </mxCell>
        <mxCell id="E39JrQ1B-pjjyprhwLWe-19" value=" Квесттің аяқталуы және жаңа квест бастау мүмкіндігі " style="ellipse;whiteSpace=wrap;html=1;" vertex="1" parent="1">
          <mxGeometry x="90" y="800" width="120" height="80" as="geometry" />
        </mxCell>
        <mxCell id="E39JrQ1B-pjjyprhwLWe-22" style="edgeStyle=orthogonalEdgeStyle;rounded=0;orthogonalLoop=1;jettySize=auto;html=1;entryX=1;entryY=0.632;entryDx=0;entryDy=0;entryPerimeter=0;" edge="1" parent="1" source="E39JrQ1B-pjjyprhwLWe-13" target="E39JrQ1B-pjjyprhwLWe-15">
          <mxGeometry relative="1" as="geometry">
            <Array as="points">
              <mxPoint x="350" y="660" />
            </Array>
          </mxGeometry>
        </mxCell>
      </root>
    </mxGraphModel>
  </diagram>
</mxfile>
